<svg width="854" height="227" xmlns="http://www.w3.org/2000/svg">
 <g transform="translate(-170,-245) rotate(0)">
  <title>Layer 1</title>
  <path id="svg_2" d="m257.47,248.48c10.48,-4.88 23.15,-4.61 33.44,0.65c11.17,5.56 19.39,15.8 24.25,27.12c-2.48,0 -4.95,0 -7.43,-0.01c-4.81,-8.8 -11.75,-16.85 -21.15,-20.85c-9.6,-4.33 -21.2,-3.44 -30.16,2.05c-7.5,4.33 -12.98,11.33 -17.15,18.79c-2.47,0.02 -4.95,0.02 -7.43,0.02c5.04,-11.79 13.79,-22.4 25.63,-27.77z" fill="#cccccc"/>
  <path id="svg_4" d="m243.01,276.21c7.95,-8.46 19.17,-14.32 30.98,-13.95c11.47,-0.07 22.23,5.75 29.97,13.95c4.73,4.94 8.39,10.83 11.07,17.11c2.14,5.1 3.5,10.5 4.37,15.95c0.22,2.44 0.6,4.91 0.24,7.36c-0.62,2.64 -4.66,3.11 -5.92,0.73c-0.71,-2.43 -0.8,-4.99 -1.12,-7.48c-0.68,-5.79 -2.57,-11.39 -5.13,-16.6c-3.48,-6.62 -8.2,-12.81 -14.5,-16.96c-6.15,-4.19 -13.47,-6.96 -21.01,-6.41c-6.51,0.09 -12.6,2.87 -17.93,6.41c-6.31,4.14 -11.06,10.32 -14.52,16.95c-2.57,5.21 -4.47,10.81 -5.14,16.61c-0.34,2.47 -0.4,5.02 -1.1,7.43c-1.22,2.41 -5.21,1.99 -5.94,-0.6c-0.37,-2.46 0,-4.97 0.23,-7.42c0.87,-5.48 2.25,-10.89 4.39,-16c2.68,-6.27 6.34,-12.15 11.06,-17.08z" fill="#f1f1f1"/>
  <path id="svg_6" d="m184.51,276.02l0.34,0.18c5.44,2.79 10.92,5.5 16.28,8.46c-5.53,2.59 -11.25,4.75 -16.65,7.57c-0.03,-5.4 -0.03,-10.81 0.03,-16.21z" fill="#ffc107"/>
  <path id="svg_7" d="m184.85,276.2c15.66,0.11 31.33,0.01 46.99,0.05c2.48,0 4.96,0 7.43,-0.02c0.94,0 2.81,-0.01 3.74,-0.02c-4.72,4.93 -8.38,10.81 -11.06,17.08c-10.24,0.34 -20.49,0.13 -30.73,0.15c-0.07,-2.92 -0.12,-5.85 -0.09,-8.78c-5.36,-2.96 -10.84,-5.67 -16.28,-8.46z" fill="#e5ad06"/>
  <path id="svg_8" d="m239.51,293.27c3.46,-6.63 8.21,-12.81 14.52,-16.95c12.97,-0.12 25.96,-0.14 38.94,0c6.3,4.15 11.02,10.34 14.5,16.96c-22.65,0.29 -45.31,0.31 -67.96,-0.01z" fill="#e5ad06"/>
  <path id="svg_9" d="m303.96,276.21c0.94,0.01 2.83,0.02 3.77,0.03c2.48,0.01 4.95,0.01 7.43,0.01c15.66,-0.04 31.32,0.06 46.98,-0.06c-5.43,2.8 -10.92,5.51 -16.26,8.48c0.01,2.92 -0.03,5.85 -0.1,8.77c-10.25,0.01 -20.51,0.13 -30.75,-0.12c-2.68,-6.28 -6.34,-12.17 -11.07,-17.11z" fill="#e5ad06"/>
  <path id="svg_10" d="m362.14,276.19l0.35,-0.17c0.06,5.4 0.05,10.8 0.03,16.21c-5.39,-2.85 -11.13,-4.97 -16.64,-7.56c5.34,-2.97 10.83,-5.68 16.26,-8.48z" fill="#ffc107"/>
  <path id="svg_11" d="m184.48,292.23c5.4,-2.82 11.12,-4.98 16.65,-7.57c-0.03,2.93 0.02,5.86 0.09,8.78c-6.06,0.21 -12.1,-0.15 -18.14,-0.44l1.4,-0.77z" fill="#ffcd38"/>
  <path id="svg_12" d="m345.88,284.67c5.51,2.59 11.25,4.71 16.64,7.56l1.5,0.84c-6.08,0.21 -12.15,0.57 -18.24,0.37c0.07,-2.92 0.11,-5.85 0.1,-8.77z" fill="#ffcd38"/>
  <path id="svg_13" d="m181.2,293.15c0.47,-0.03 1.41,-0.11 1.88,-0.15c6.04,0.29 12.08,0.65 18.14,0.44c10.24,-0.02 20.49,0.19 30.73,-0.15c-2.14,5.11 -3.52,10.52 -4.39,16c-1.93,1.79 -4.57,3.33 -5.03,6.16c-1.23,4.4 1.88,9.45 6.48,10.05c4.93,1 9.78,-3.52 9.31,-8.48c0.06,-2.96 -2.25,-5.03 -3.95,-7.14c0.67,-5.8 2.57,-11.4 5.14,-16.61c22.65,0.32 45.31,0.3 67.96,0.01c2.56,5.21 4.45,10.81 5.13,16.6c-1.64,2.14 -3.99,4.18 -3.92,7.12c-0.48,5 4.41,9.53 9.36,8.49c4.58,-0.63 7.66,-5.67 6.42,-10.05c-0.46,-2.85 -3.12,-4.38 -5.06,-6.17c-0.87,-5.45 -2.23,-10.85 -4.37,-15.95c10.24,0.25 20.5,0.13 30.75,0.12c6.09,0.2 12.16,-0.16 18.24,-0.37c0.44,0.02 1.32,0.05 1.75,0.07c1.06,23.3 2.96,46.56 4.35,69.85c1.94,30 3.94,60 5.84,90c0.79,8.97 -6.66,17.99 -15.85,17.98c-55.7,0.08 -111.4,-0.01 -167.09,0.04c-4.41,-0.03 -9.16,0.45 -13.12,-1.87c-6.12,-3.2 -9.59,-10.35 -8.83,-17.15c3.18,-48.36 6.3,-96.71 9.46,-145.07c0.33,-4.58 0.6,-9.17 0.67,-13.77z" fill="#ffc107"/>
  <path id="svg_14" d="m425.33,309.45c5.48,-2.31 13.72,0.8 13.46,7.55c0.78,7.48 -8.69,11.14 -14.47,7.83c-6.25,-2.85 -5.71,-13.47 1.01,-15.38z" fill="#ffffff"/>
  <path id="svg_15" d="m222.53,315.45c0.46,-2.83 3.1,-4.37 5.03,-6.16c-0.23,2.45 -0.6,4.96 -0.23,7.42c0.73,2.59 4.72,3.01 5.94,0.6c0.7,-2.41 0.76,-4.96 1.1,-7.43c1.7,2.11 4.01,4.18 3.95,7.14c0.47,4.96 -4.38,9.48 -9.31,8.48c-4.6,-0.6 -7.71,-5.65 -6.48,-10.05z" fill="#333333"/>
  <path id="svg_16" d="m319.4,309.27c1.94,1.79 4.6,3.32 5.06,6.17c1.24,4.38 -1.84,9.42 -6.42,10.05c-4.95,1.04 -9.84,-3.49 -9.36,-8.49c-0.07,-2.94 2.28,-4.98 3.92,-7.12c0.32,2.49 0.41,5.05 1.12,7.48c1.26,2.38 5.3,1.91 5.92,-0.73c0.36,-2.45 -0.02,-4.92 -0.24,-7.36z" fill="#333333"/>
  <path id="svg_17" d="m614.21,320.27c2.49,-6.46 12.86,-6.36 15.17,0.2c1.29,5.05 0.34,10.37 0.62,15.53c4.68,0.1 9.39,-0.24 14.07,0.16c3.36,0.34 6.12,3.5 6.09,6.88c0.14,3.46 -2.67,6.77 -6.13,7.11c-4.66,0.4 -9.36,0.06 -14.03,0.16c0.01,11.57 -0.01,23.14 0,34.71c-0.04,3.34 0.49,7.46 3.85,9.12c4.26,2.48 9.87,-1.1 13.71,2.39c3.78,2.99 2.69,9.63 -1.77,11.37c-5,2.01 -10.56,2.38 -15.88,1.81c-4.65,-0.52 -9.4,-2.42 -12.31,-6.22c-3.41,-4.37 -4.14,-10.11 -4.11,-15.48c0.02,-12.52 0,-25.04 0.02,-37.55c-2.44,-0.28 -5.21,-0.01 -7.18,-1.73c-3.54,-2.67 -3.49,-8.65 0.11,-11.25c1.96,-1.65 4.68,-1.36 7.07,-1.62c0.28,-5.17 -0.76,-10.55 0.7,-15.59z" fill="#ffffff"/>
  <path id="svg_18" d="m246.65,390.09c17.93,-22.06 35.87,-44.11 53.8,-66.17c-7.7,17.13 -15.45,34.24 -23.15,51.36c6.8,1.93 13.61,3.87 20.41,5.82c-16.23,25.93 -32.45,51.86 -48.68,77.79c5.99,-20.99 12.04,-41.97 18.03,-62.97c-6.8,-1.94 -13.61,-3.87 -20.41,-5.83z" fill="#ffffff"/>
  <path id="svg_19" d="m491.68,334.84c9.55,-2.26 21.04,0.16 27,8.5c5.05,6.75 5.59,15.53 5.33,23.65c-0.04,11.38 0.03,22.76 -0.02,34.14c0.03,2.57 -0.8,5.27 -2.84,6.95c-3.41,2.98 -9.21,2.4 -11.91,-1.24c-1.57,-1.92 -1.76,-4.46 -1.76,-6.83c0.01,-10.99 0.04,-21.98 0.01,-32.97c-0.04,-5.59 -1.48,-11.83 -6.25,-15.28c-6.31,-4.37 -16,-3.41 -21,2.55c-2.95,3.47 -4.12,8.11 -4.2,12.59c-0.16,11.73 0.1,23.47 -0.11,35.2c0.06,5.31 -5.83,9.31 -10.78,7.5c-3.64,-1.07 -5.87,-4.87 -5.64,-8.56c-0.04,-18.66 0.02,-37.31 -0.03,-55.97c-0.08,-2.85 0.43,-6 2.71,-7.96c3.44,-3.31 9.68,-2.6 12.28,1.4c1.71,2.27 1.45,5.23 1.6,7.9c3.73,-5.44 9.07,-10.04 15.61,-11.57z" fill="#ffffff"/>
  <path id="svg_20" d="m829.44,342.44c12.01,-11.01 32.4,-11.33 44.52,-0.33c8.03,7.25 12.07,18.27 12.02,28.96c0.21,4.28 -3.55,8.17 -7.88,7.9c-15.01,0.1 -30.03,-0.04 -45.05,0.06c1.12,5.57 3.56,11.2 8.37,14.55c7.98,5.7 19.53,4.81 27.28,-0.89c2.38,-1.7 5.04,-3.96 8.2,-2.89c5.01,1.18 6.36,8.35 2.57,11.61c-10.67,10.05 -27.34,11.98 -40.72,6.72c-10.54,-4.11 -18.45,-13.79 -20.89,-24.78c-3.2,-14.33 0.36,-30.89 11.58,-40.91z" fill="#ffffff"/>
  <path id="svg_21" d="m426.43,335.66c3.48,-1.55 7.95,-0.31 10.06,2.88c1.58,2.13 1.5,4.9 1.54,7.43c-0.11,18.71 0.08,37.43 -0.09,56.14c0.07,5 -5.17,8.9 -9.95,7.72c-4.07,-0.71 -6.8,-4.82 -6.48,-8.83c-0.02,-19 -0.02,-38.01 0,-57.01c-0.17,-3.43 1.64,-7.02 4.92,-8.33z" fill="#ffffff"/>
  <path id="svg_22" d="m559.41,335.74c10.36,-2.05 21.32,0.3 30.5,5.34c3.33,1.71 4.63,6.24 2.78,9.49c-1.64,3.13 -5.88,4.3 -8.96,2.66c-6.98,-3.26 -14.97,-6.54 -22.71,-4.15c-3.8,0.97 -6.45,5.66 -4.2,9.18c2.42,3.29 6.62,4.43 10.28,5.79c8,2.72 16.86,4.6 23.07,10.76c5.85,5.71 5.93,15.1 2.86,22.23c-2.91,6.7 -9.75,10.82 -16.7,12.19c-12.56,2.4 -26,-0.86 -36.34,-8.29c-3.74,-2.63 -3.24,-9.02 0.72,-11.2c2.47,-1.54 5.59,-0.94 7.88,0.64c7.11,4.5 15.72,7.46 24.2,5.96c3.62,-0.57 7.34,-3.33 7.2,-7.33c0.17,-3.24 -2.68,-5.42 -5.33,-6.59c-9.08,-4.1 -19.82,-4.73 -27.67,-11.34c-6.49,-5.33 -7.4,-15.05 -4.36,-22.47c2.8,-6.91 9.65,-11.42 16.78,-12.87z" fill="#ffffff"/>
  <path id="svg_23" d="m671.57,339.54c8.92,-3.87 18.87,-5.1 28.52,-4.33c7.09,0.61 14.43,2.97 19.35,8.34c5.4,5.68 7.13,13.8 7.28,21.41c0.1,11.34 -0.03,22.69 0.06,34.04c-0.03,2.72 0.1,5.78 -1.75,8.01c-3.21,4.21 -10.55,3.91 -13.38,-0.56c-1.16,-1.69 -0.89,-3.83 -1.13,-5.75c-9.93,12.06 -30.12,13.94 -41.9,3.62c-6.98,-6.35 -8.21,-17.2 -4.92,-25.7c2.6,-6.74 9.18,-11.05 15.97,-12.73c10.26,-2.5 21.15,-1.54 31.18,1.56c-0.05,-5.11 -0.89,-10.85 -5.16,-14.22c-6.07,-4.77 -14.49,-4.13 -21.64,-2.87c-4.28,0.61 -8.74,4.06 -12.97,1.54c-4.7,-2.53 -4.38,-10.2 0.49,-12.36z" fill="#ffffff"/>
  <path id="svg_24" d="m739.69,346.37c-2.26,-4.71 1.2,-10.67 6.31,-11.28c4.05,-0.8 8.01,1.89 9.26,5.72c6.29,16.09 12.38,32.25 18.63,48.36c6.08,-15.69 12.18,-31.38 18.23,-47.09c0.91,-2.21 1.96,-4.58 4.07,-5.91c4.04,-2.64 10.33,-0.7 11.82,4.01c1.09,2.66 0.16,5.51 -0.91,8.01c-7.88,18.12 -15.62,36.29 -23.48,54.42c-1.6,3.91 -5.05,7.6 -9.6,7.41c-4.88,0.47 -8.69,-3.44 -10.28,-7.68c-7.98,-18.67 -16.21,-37.25 -24.05,-55.97z" fill="#ffffff"/>
  <path id="svg_25" d="m903.57,342.97c-0.22,-6.37 7.91,-10.32 12.88,-6.49c4.74,3.21 3.43,9.58 3.5,14.45c2.5,-5.4 5.91,-10.68 11.11,-13.82c3.26,-2.03 7.56,-2.92 11.15,-1.22c5.39,2.69 5.51,11.74 0.17,14.55c-3.81,1.59 -8.13,1.98 -11.54,4.48c-6.65,4.33 -9.87,12.3 -10.54,19.96c-0.84,9.61 0.25,19.29 -0.59,28.88c-1.14,5.9 -9.29,8.29 -13.54,4.14c-2.59,-2.18 -2.77,-5.77 -2.7,-8.9c0.13,-18.67 -0.1,-37.36 0.1,-56.03z" fill="#ffffff"/>
  <path id="svg_26" d="m959.31,335.47c4.1,-1.62 8.96,0.63 10.42,4.78c6.71,16.46 13.16,33.03 19.77,49.54c6.25,-16.57 12.12,-33.29 18.56,-49.78c1.74,-4.8 8.2,-6.62 12.16,-3.39c3.65,2.67 3.56,7.85 1.84,11.62c-8.83,21.45 -17.56,42.94 -26.43,64.37c-3.21,7.46 -7.99,15.54 -16.39,17.77c-6.78,1.61 -14.32,1.14 -20.54,-2.12c-4.5,-2.5 -4.19,-10.03 0.52,-12.12c4.5,-1.97 9.11,1.83 13.77,0.66c4.64,-0.56 6.91,-5.15 8.69,-8.91c-9,-20.31 -17.96,-40.64 -26.84,-61c-2.08,-4.19 -0.17,-10 4.47,-11.42z" fill="#ffffff"/>
  <path id="svg_27" d="m841.25,351.29c6.1,-5.15 16.02,-4.92 21.78,0.66c4.46,4.12 6.18,10.21 7.06,16.02c-12.39,0.05 -24.78,0.05 -37.17,0c1.06,-6.19 3.27,-12.62 8.33,-16.68z" fill="#f44336"/>
  <path id="svg_28" d="m681.84,377.82c2.53,-2.15 5.82,-3.15 9.07,-3.56c6.8,-0.78 13.7,0.38 20.12,2.64c-0.06,4.14 0.35,8.62 -1.89,12.31c-3.37,6 -10.55,8.76 -17.16,8.72c-4.4,0.02 -9.22,-1.34 -11.95,-5c-3.31,-4.49 -2.52,-11.55 1.81,-15.11z" fill="#f44336"/>
 </g>
</svg>