<?xml version="1.0" standalone="yes"?>

<svg version="1.1" viewBox="0.0 0.0 255.4724409448819 255.4724409448819" fill="none" stroke="none" stroke-linecap="square" stroke-miterlimit="10" xmlns="http://www.w3.org/2000/svg" xmlns:xlink="http://www.w3.org/1999/xlink"><clipPath id="p.0"><path d="m0 0l255.47244 0l0 255.47244l-255.47244 0l0 -255.47244z" clip-rule="nonzero"></path></clipPath><g clip-path="url(#p.0)"><path fill="#000000" fill-opacity="0.0" d="m0 0l255.47244 0l0 255.47244l-255.47244 0z" fill-rule="evenodd"></path><path fill="#ecf0f1" d="m-0.070866145 127.74803l0 0c0 -70.55329 57.19474 -127.74803 127.74803 -127.74803l0 0c33.880882 0 66.37409 13.459129 90.331505 37.41653c23.957397 23.957405 37.416534 56.45062 37.416534 90.3315l0 0c0 70.55328 -57.194748 127.74803 -127.74804 127.74803l0 0c-70.55328 0 -127.74803 -57.194748 -127.74803 -127.74803z" fill-rule="evenodd"></path><path fill="#000000" fill-opacity="0.0" d="m-23.393702 4.5354333l302.14172 0l0 246.4252l-302.14172 0z" fill-rule="evenodd"></path><path fill="#0a0c17" d="m97.78026 208.94168q-15.609375 0 -15.609375 -13.40625q0 -4.40625 1.296875 -10.09375q1.3125 -5.703125 3.703125 -14.703125q2.8125 -9.40625 4.203125 -16.0q1.40625 -6.609375 1.40625 -11.796875q0 -13.609375 -12.0 -13.609375q-3.40625 0 -6.609375 0.796875l-16.0 75.40625l-28.796877 0l29.000002 -136.0q-13.390625 5.59375 -20.703125 16.796875q-7.296877 11.203125 -7.296877 27.0q0 7.40625 1.390625 10.3125q1.4062519 2.890625 1.4062519 3.296875q-10.796877 0 -16.093752 -4.5q-5.296874 -4.5 -5.296874 -14.90625q0 -12.796875 10.499999 -24.890625q10.500002 -12.109375 26.890627 -19.609371q16.40625 -7.5 32.8125 -7.5q2.796875 0 8.0 0.40625l-13.0 61.187496l20.59375 -27.59375q24.593742 -33.20312 24.796867 -32.999996l20.999992 0l-55.593735 63.999996l7.0 -0.203125q13.593742 0 19.187492 5.703125q5.609375 5.703125 5.609375 15.703125q0 5.796875 -1.40625 12.296875q-1.390625 6.5 -4.0 16.09375q-1.59375 6.203125 -3.0 12.203125q-1.390625 6.0 -1.390625 10.0q0 4.609375 2.09375 8.203125q2.109375 3.59375 5.703125 5.0q-12.203125 3.40625 -19.796867 3.40625zm81.9969 0.1875q-12.59375 0 -22.203125 -4.390625q-9.59375 -4.40625 -14.796875 -12.296875q-5.203125 -7.90625 -5.203125 -18.3125q0 -8.796875 3.703125 -15.984375q3.703125 -7.203125 10.0 -11.40625q6.296875 -4.203125 13.90625 -4.203125q7.0 0 11.796875 3.5q4.796875 3.5 6.0 9.703125q-10.40625 0 -16.609375 5.5q-6.1875 5.5 -6.1875 14.890625q0 8.609375 5.1875 13.8125q5.203125 5.1875 13.8125 5.1875q10.59375 0 17.484375 -7.09375q6.90625 -7.09375 6.90625 -17.90625q0 -9.390625 -5.203125 -17.78125q-5.1875 -8.40625 -15.59375 -20.40625q-10.796875 -12.40625 -16.296875 -21.296875q-5.5 -8.90625 -5.5 -19.515625q0 -10.390625 5.796875 -18.6875q5.796875 -8.3125 16.0 -13.109371q10.203125 -4.796875 23.0 -4.796875q16.203125 0 25.890625 7.609375q9.703125 7.593746 9.703125 20.390621q0 8.40625 -4.203125 13.609375q-4.1875 5.1875 -10.984375 5.1875q-7.609375 0 -12.203125 -6.203125q3.796875 -2.796875 6.0 -7.390625q2.203125 -4.609375 2.203125 -9.609375q0 -6.390625 -3.8125 -10.1875q-3.796875 -3.8125 -10.390625 -3.8125q-8.0 0 -13.109375 5.703125q-5.09375 5.703125 -5.09375 14.5q0 8.0 4.59375 14.90625q4.609375 6.890625 14.40625 17.703125q8.0 8.59375 12.890625 14.796875q4.90625 6.203125 8.40625 14.296875q3.5 8.09375 3.5 17.5q0 12.796875 -7.109375 23.203125q-7.09375 10.390625 -19.390625 16.390625q-12.296875 6.0 -27.296875 6.0z" fill-rule="nonzero"></path></g></svg>

